<?xml version="1.0" encoding="UTF-8" standalone="no"?>
<!-- Created with Inkscape (http://www.inkscape.org/) -->

<svg
   version="1.1"
   id="svg254"
   width="1024"
   height="761"
   viewBox="0 0 1024 761"
   sodipodi:docname="pastor-pulpit.svg"
   inkscape:version="1.2.2 (b0a8486541, 2022-12-01)"
   xmlns:inkscape="http://www.inkscape.org/namespaces/inkscape"
   xmlns:sodipodi="http://sodipodi.sourceforge.net/DTD/sodipodi-0.dtd"
   xmlns="http://www.w3.org/2000/svg"
   xmlns:svg="http://www.w3.org/2000/svg">
  <defs
     id="defs258" />
  <sodipodi:namedview
     id="namedview256"
     pagecolor="#ffffff"
     bordercolor="#666666"
     borderopacity="1.0"
     inkscape:showpageshadow="2"
     inkscape:pageopacity="0.0"
     inkscape:pagecheckerboard="0"
     inkscape:deskcolor="#d1d1d1"
     showgrid="false"
     inkscape:zoom="1.1379763"
     inkscape:cx="372.59122"
     inkscape:cy="380.5"
     inkscape:window-width="1920"
     inkscape:window-height="1053"
     inkscape:window-x="0"
     inkscape:window-y="0"
     inkscape:window-maximized="1"
     inkscape:current-layer="g260" />
  <g
     inkscape:groupmode="layer"
     inkscape:label="Image"
     id="g260">
    <path
       style="fill:#000000"
       d="m 1015.5324,753.88747 -4.0957,-1.47471 -1.2149,-17.71812 c -3.9468,-57.55892 -9.6474,-119.13159 -13.5374,-146.21812 -4.10623,-28.59244 -29.75112,-139.24329 -40.55872,-175 -2.24423,-7.425 -7.17391,-24.975 -10.95483,-39 -11.48919,-42.61808 -13.34307,-46.35272 -25.21085,-50.78737 -10.23951,-3.82622 -40.98942,-10.21263 -49.17273,-10.21263 -1.73159,0 -16.9113,22.29425 -26.01991,38.21513 -21.22004,37.09033 -47.1323,93.66203 -49.77615,108.67137 l -1.06531,6.04786 23.44065,32.28282 c 78.33354,107.88218 136.82022,191.104 143.36693,203.99958 2.95966,5.82987 2.98372,6.78324 0.1712,6.78324 -6.07303,0 -42.56641,-44.10306 -170.86985,-206.5 -23.89934,-30.25 -46.31243,-58.76089 -49.80686,-63.35753 -6.24847,-8.21934 -6.41344,-8.34822 -9.97673,-7.79397 -1.99276,0.30996 -86.85353,11.89404 -188.5795,25.7424 -132.66615,18.06037 -185.36419,25.58674 -186.39907,26.62162 -0.88141,0.8814 -2.26023,1.18447 -3.54371,0.7789 -1.1555,-0.36513 -3.00092,-0.6572 -4.10092,-0.64904 -4.76849,0.0353 -205.49596,27.72545 -205.49788,28.34818 -10e-4,0.3798 20.3358,28.2798 45.19326,62 47.38809,64.28395 50.99239,69.88294 53.87759,83.69456 3.12557,14.96233 -8.81993,13.36368 -26.88094,-3.59743 -4.10443,-3.85448 -23.20296,-28.95404 -57.17752,-75.14353 -28.05798,-38.14571 -51.01451,-69.93823 -51.01451,-70.65004 0,-1.37372 6.87217,-18.50376 7.9031,-19.6998 0.33455,-0.38813 8.14321,-1.71143 17.35258,-2.94068 14.65169,-1.95567 16.74432,-2.46065 16.74432,-4.04063 0,-1.87676 -2.9885,-16.09267 -7.51169,-35.73213 -3.31292,-14.38448 -6.47769,-35.70976 -6.4837,-43.6893 l -0.005,-6.10842 -5.26844,-3.49805 C 110.80694,381.2756 89.475817,361.43512 84.446277,351.95232 c -4.77843,-9.00936 -11.41845,-14.136 -21.31863,-16.45976 -8.2373,-1.93344 -14.6226,-4.65421 -23.5,-10.01332 -4.4,-2.6562 -11.6,-6.24826 -16,-7.98235 C 9.0670871,311.75838 4.1276471,306.45114 4.1276471,296.54491 c 0,-7.2963 2.8438,-10.06839 10.3288199,-10.06839 6.72776,0 12.65136,2.01455 19.29407,6.56169 2.81759,1.92873 8.11458,4.36232 11.77109,5.40799 3.65652,1.04567 10.2242,3.28027 14.59485,4.96577 4.37066,1.6855 8.33388,3.06455 8.80716,3.06455 0.47328,0 1.39885,-2.33221 2.05682,-5.18269 l 1.19631,-5.18268 -3.77456,-3.91835 c -2.07601,-2.15509 -7.82456,-7.19932 -12.77456,-11.20939 -4.95,-4.01007 -15.11808,-13.35108 -22.59574,-20.7578 -11.88796,-11.77519 -13.744,-14.05557 -14.77607,-18.15427 -2.67726,-10.63238 3.93406,-18.57448 15.77415,-18.94928 6.16552,-0.19517 11.71196,3.61698 24.3464,16.73364 8.35097,8.6697 9.58459,9.63497 8.60388,6.73228 -0.7067,-2.09168 -6.20262,-8.59795 -14.36008,-17 -7.26837,-7.4863 -13.95262,-15.05161 -14.85388,-16.8118 -0.90126,-1.76019 -1.63866,-5.5073 -1.63866,-8.32692 0,-4.33289 0.45255,-5.57913 2.92308,-8.04966 5.83128,-5.83129 18.1163,-3.19242 27.36874,5.8789 l 4.79182,4.69802 -1.54182,-4.37573 c -0.848,-2.40665 -1.54182,-6.28346 -1.54182,-8.61514 0,-7.17511 5.9699,-12.50926 14.35594,-12.82714 3.50752,-0.13295 5.32822,0.66228 11.85331,5.1772 8.122193,5.61999 27.264893,24.60925 32.546073,32.28519 4.26823,6.20365 15.85158,29.12211 17.84366,35.30491 1.86007,5.77308 8.32164,17.96342 9.10591,17.17915 0.28741,-0.28741 -0.87861,-4.39491 -2.59116,-9.12777 -3.31355,-9.15745 -4.14066,-18.63331 -1.99154,-22.81641 1.65896,-3.22906 6.00383,-7.66743 9.07815,-9.27354 4.38464,-2.29064 10.48804,-1.81325 13.34511,1.04383 2.12739,2.12739 2.45455,3.36583 2.45455,9.29166 0,6.47422 0.19073,7.03932 3.59335,10.64674 4.47302,4.74224 5.82331,7.93816 7.83542,18.54513 0.87572,4.61643 2.32322,10.6814 3.21667,13.47772 1.25817,3.93784 1.76313,11.28476 2.2395,32.5842 l 0.61506,27.5 2.88275,5.5 c 4.80179,9.16134 8.52986,13.91477 12.50289,15.94166 3.80476,1.94104 47.44271,43.42663 71.61436,68.08211 16.42293,16.75166 30.32679,28.97548 32.96162,28.97879 3.77161,0.005 27.03162,-3.25517 27.69901,-3.88204 0.36335,-0.34129 0.0488,-3.77052 -0.69905,-7.62052 -3.94925,-20.33167 -4.93931,-33.69185 -4.92802,-66.5 0.0115,-33.47976 1.22112,-48.56651 4.97092,-62 0.84439,-3.025 2.13694,-7.64343 2.87232,-10.26317 0.73538,-2.61974 2.17769,-5.69206 3.20514,-6.82737 1.02744,-1.13531 7.39376,-4.76258 14.14737,-8.0606 6.75361,-3.29803 12.74351,-6.86382 13.31089,-7.92398 1.46496,-2.73729 8.28862,-5.95337 28.65578,-13.50583 27.42949,-10.17129 34.2269,-13.70219 45.58599,-23.67953 12.36699,-10.86262 16.80642,-13.11817 24.69629,-12.54747 15.14663,1.09561 26.02174,15.45983 26.02174,34.37045 0,14.35882 -5.03039,24.79401 -13.82824,28.68572 -5.92734,2.62195 -14.2294,1.93768 -26.92181,-2.21894 -5.08753,-1.6661 -10.7905,-3.02928 -12.67328,-3.02928 -4.77561,0 -9.043,3.87721 -11.10706,10.0915 -1.61808,4.87159 -1.58945,5.46999 0.89578,18.72048 1.41201,7.52841 3.06512,16.38802 3.67358,19.68802 0.60845,3.3 1.36321,12.8625 1.67723,21.25 0.31403,8.3875 0.73438,15.25 0.93412,15.25 0.19974,0 5.42263,-3.49273 11.60642,-7.76163 24.93876,-17.21614 46.29599,-29.9827 59.89676,-35.80407 14.24584,-6.09748 32.57368,-10.80583 58.00796,-14.90203 2.60783,-0.41999 6.92425,-3.19364 15,-9.63871 6.2362,-4.97696 11.75005,-9.44805 12.253,-9.93576 0.54997,-0.53328 0.0503,-3.86071 -1.25349,-8.34797 -3.15449,-10.85651 -0.94562,-14.85522 8.95566,-16.21234 4.22032,-0.57846 4.96465,-0.28953 12.53659,4.86638 9.97123,6.78964 17.58246,9.73613 25.14989,9.73613 8.06499,0 11.52201,-2.20315 18.1722,-11.5811 3.69871,-5.21585 7.47741,-9.18172 11.07011,-11.61847 8.44799,-5.72985 37.92826,-18.40229 76.82743,-33.02518 l 11.37284,-4.27525 3.45277,-14.17308 3.45277,-14.17309 -3.8164,-4.85897 -3.81641,-4.85898 -6.2385,0.39724 c -12.67858,0.80731 -17.27992,-1.66792 -17.27992,-9.29549 v -4.46238 l 6.29297,0.58765 c 8.25766,0.77111 19.08609,-1.12603 26.35963,-4.6182 10.96386,-5.26397 17.22956,-14.66553 18.12626,-27.1981 0.59375,-8.29836 -0.13872,-11.34884 -3.46533,-14.43183 -3.19424,-2.96033 -7.8912,-3.1336 -20.32624,-0.74983 -9.71866,1.86305 -12.28774,1.45484 -11.80743,-1.87611 0.72346,-5.0171 12.60721,-9.80305 24.25164,-9.76687 14.89479,0.0463 22.64035,7.7924 20.97652,20.97804 -1.92452,15.25156 -12.90499,34.6907 -22.90627,40.55184 l -4.53577,2.65814 2.26701,4.05413 c 3.73297,6.67573 5.01074,6.88805 10.32969,1.71643 11.79216,-11.46553 17.15373,-32.80521 16.16887,-64.354 -0.84787,-27.16023 -4.51646,-38.496878 -18.49583,-57.155638 -6.74544,-9.00337 -23.44033,-26.3855 -32.75183,-34.100031 l -4.98389,-4.129129 -0.002,5.629129 c -10e-4,3.831081 -0.72857,7.104971 -2.27647,10.249541 -2.43275,4.94215 -9.41357,12.48841 -12.44175,13.44951 -1.58101,0.5018 -1.12714,1.36364 3.22711,6.12789 7.84154,8.57989 8.46444,10.21812 8.47983,22.30219 0.007,5.775 -0.11468,13.874998 -0.27121,17.999998 -0.41781,11.01109 0.26531,13.05549 6.38028,19.0945 3.96703,3.91776 5.40431,6.07763 5.40431,8.12134 0,3.66563 -1.27468,3.56363 -10.40874,-0.83293 -11.16033,-5.37187 -10.96807,-4.81606 -10.12982,-29.28411 0.47455,-13.851888 0.35612,-21.506818 -0.36158,-23.371028 -0.58699,-1.52473 -3.92668,-5.81678 -7.42154,-9.5379 -12.101,-12.88447 -12.11337,-14.36941 -0.1561,-18.73047 11.25843,-4.10618 13.58079,-8.23245 9.58497,-17.030143 -2.49893,-5.501935 -7.92283,-9.733445 -17.7482,-13.846425 -15.89551,-6.653952 -22.29639,-7.926207 -36.35909,-7.226802 -19.99591,0.994491 -26.3741,3.316363 -36.93341,13.444975 -8.99315,8.626339 -16.15543,12.585125 -28.32242,15.654575 -7.84943,1.98023 -9.5099,2.76302 -11.00538,5.18826 -1.86741,3.0284 -8.84362,23.58466 -8.21671,24.21157 0.20324,0.20324 2.49908,-0.35609 5.10186,-1.24294 6.91027,-2.35457 9.21295,-2.05815 12.75798,1.6423 1.71495,1.79012 4.35558,3.80548 5.86808,4.47856 4.55347,2.02636 3.58712,5.08435 -5.85287,18.52129 -10.70531,15.237998 -12.72646,19.102998 -12.0993,23.137208 0.31704,2.03937 -0.20151,4.23637 -1.50797,6.38907 -2.68465,4.42355 -1.7455,7.79574 2.77088,9.94946 2.11379,1.00799 3.3913,2.28018 3.21403,3.20063 -0.39094,2.03 -4.84978,3.51798 -8.0985,2.70261 -6.01466,-1.50959 -6.19308,-17.80148 -0.33017,-30.14711 3.24324,-6.82935 3.31735,-7.21221 1.29686,-6.69989 -1.17863,0.29886 -3.53544,1.59413 -5.23735,2.87839 -1.70192,1.28426 -4.4691,2.33501 -6.14931,2.33501 -2.85595,0 -3.08456,0.27679 -3.51006,4.25 -0.25033,2.3375 -1.41561,9.55281 -2.58952,16.03402 -2.04688,11.30096 -2.07198,12.26428 -0.61222,23.5 2.45349,18.88441 13.3095,64.29966 15.34146,64.17974 0.33772,-0.0199 1.51404,-1.93243 2.61404,-4.25 1.52724,-3.21772 2.6418,-4.28776 4.71512,-4.52682 3.6253,-0.418 4.62247,3.26244 2.39335,8.83356 -3.33513,8.33533 -0.98516,11.92353 9.20229,14.05106 7.52443,1.57139 24.5077,0.56351 34.18924,-2.02897 9.05098,-2.42363 11.36325,-2.51475 13.02433,-0.51327 1.88185,2.26749 -1.64252,5.53171 -10.33648,9.57351 -6.89371,3.20486 -7.65845,3.33789 -18.68785,3.25096 -6.325,-0.0498 -13.4125,-0.55202 -15.75,-1.11592 -2.3375,-0.5639 -4.25,-0.83487 -4.25,-0.60215 0,0.23271 1.83593,2.74574 4.07984,5.58451 6.42849,8.13264 10.67631,18.11614 13.41541,31.52977 0.82042,4.01766 -0.88435,4.30015 -6.03483,1 -2.6236,-1.68106 -4.70617,-4.65219 -8.23598,-11.75 -2.70169,-5.4326 -6.45465,-11.21259 -8.7656,-13.5 -9.71943,-9.62043 -21.96038,-26.59751 -28.42439,-39.42204 -6.11889,-12.13982 -10.16547,-33.4454 -11.98042,-63.07796 -1.09081,-17.80955 -0.34895,-25.85896 3.22699,-35.01395 1.6899,-4.32641 2.91612,-10.31517 3.6827,-17.98605 1.03164,-10.323118 1.60871,-12.470278 5.63884,-20.981158 2.46928,-5.21464 5.6019,-13.97667 6.96138,-19.47119 1.35949,-5.49451 3.39793,-11.90317 4.52987,-14.24145 1.13195,-2.33828 1.80667,-4.65821 1.49939,-5.155404 -0.94914,-1.535738 2.42394,-11.399814 5.61868,-16.430995 7.11015,-11.197306 22.07027,-20.5824152 40.34057,-25.3073342 9.12223,-2.359116 11.19206,-2.533168 24.94755,-2.097833 12.37713,0.391713 17.01087,0.996503 26.5,3.45875103 23.99229,6.22554097 47.74237,16.83789517 62.5,27.92715717 26.28071,19.747998 50.79297,51.634358 55.96372,72.799456 3.35956,13.75148 4.34931,36.07433 2.44041,55.04119 -2.77024,27.52519 -11.85194,45.42523 -26.43379,52.10102 l -5.47034,2.5044 v 6.36163 6.36162 l 7.25,-3.34158 c 9.96429,-4.59262 18.20777,-6.85258 22.23783,-6.09654 2.50674,0.47027 5.63349,3.03387 12.77419,10.47346 10.12767,10.55159 31.75581,36.19365 51.23798,60.74714 l 12,15.12367 6.51423,-0.51328 c 13.88245,-1.09383 34.53195,3.70396 46.71079,10.85299 8.57436,5.03318 17.7626,14.56371 21.26678,22.059 2.07926,4.44746 4.43344,13.59874 7.92986,30.82528 8.88373,43.76933 16.28979,73.55736 22.12768,89 8.26548,21.86423 21.52481,84.84543 27.36881,130 3.8639,29.85568 12.0191,135.73149 12.0545,156.5 l 0.027,16 -2.5,0.19283 c -1.375,0.10606 -4.343,-0.47079 -6.5956,-1.28188 z m -781.15318,-281.61079 53.75118,-7.25354 -7.38949,-7.52331 c -4.06422,-4.13782 -11.30414,-12.24831 -16.08871,-18.02331 -22.17451,-26.76476 -52.71866,-59 -55.90479,-59 -0.77141,0 -1.69886,1.2375 -2.06101,2.75 -0.36214,1.5125 -4.963,16.7 -10.22411,33.75 -17.60665,57.05886 -19.07561,62.47606 -16.95514,62.52685 0.61649,0.0148 25.30892,-3.23724 54.87207,-7.22669 z m -59.26999,-23.83983 c 5.71854,-20.62963 12.22353,-42.38057 18.13622,-60.64271 l 3.94426,-12.18238 -3.60658,-5.63798 c -1.98361,-3.1009 -4.92213,-8.41883 -6.53004,-11.81762 -2.88892,-6.10661 -2.92387,-6.39236 -2.95703,-24.17964 -0.0685,-36.73367 -2.42044,-58.11981 -7.42333,-67.5 -8.63327,-16.18701 -9.04469,-17.29006 -9.04469,-24.25 0,-6.65261 -0.0386,-6.75 -2.67742,-6.75 -5.25725,0 -8.4541,7.69073 -8.05576,19.37995 0.16648,4.88534 2.06382,9.44815 9.75426,23.45742 5.32069,9.69243 4.29096,16.16263 -2.57227,16.16263 -3.66198,0 -10.90028,-2.84303 -11.09687,-4.35858 -0.0814,-0.62778 -0.19393,-1.97676 -0.25,-2.99772 -0.0649,-1.18183 -1.53318,-2.42896 -4.04103,-3.43237 l -3.93908,-1.57607 -5.26117,5.8824 c -4.90861,5.48821 -7.48595,9.52595 -8.76554,13.73234 -0.7316,2.40499 -4.31316,2.21373 -5.10225,-0.27247 -0.35305,-1.11236 -0.3486,-3.35789 0.01,-4.99007 0.81712,-3.72031 9.54886,-17.20977 12.45959,-19.24853 1.99732,-1.39898 2.08296,-1.87472 1.05862,-5.88052 -1.83149,-7.16223 -3.18922,-10.14939 -6.52618,-14.35841 -1.74419,-2.2 -6.15404,-10.21926 -9.79966,-17.82058 -3.64563,-7.60132 -8.33092,-16.14156 -10.41176,-18.97831 -5.69102,-7.75837 -26.126713,-32.03681 -28.076453,-33.35598 -3.83653,-2.59575 -10.19538,3.79529 -10.20317,10.25483 -0.005,4.0869 4.60849,10.3537 11.13542,15.1262 9.42731,6.89325 13.61338,11.82826 18.257043,21.52343 7.40367,15.4576 10.35073,26.83094 7.83849,30.25041 -0.40408,0.55 -5.10524,4.96569 -10.44702,9.81265 -15.381753,13.95679 -22.270883,24.37506 -25.165953,38.05766 -1.59516,7.53905 -5.11681,14.62969 -7.26599,14.62969 -1.3285,0 -1.52677,-0.92535 -1.15608,-5.39541 l 0.44743,-5.39542 -6.09411,-3.5649 c -3.47521,-2.03291 -9.62508,-4.40825 -14.31058,-5.52736 -5.03417,-1.20237 -11.18544,-3.63842 -15.88211,-6.28968 -4.2161,-2.37998 -9.05243,-5.11473 -10.74741,-6.07723 -1.77653,-1.0088 -5.15563,-1.75 -7.97823,-1.75 H 7.8663471 l 0.59331,3.6561 c 0.8123,5.00562 4.5848799,8.5945 12.4915299,11.88329 3.67227,1.52749 11.17685,5.09992 16.67685,7.93873 5.5,2.83882 15.05786,6.88575 21.23969,8.99318 6.18183,2.10742 14.50683,5.45101 18.5,7.43019 6.93835,3.43894 7.40103,3.89055 10.43374,10.18415 3.92041,8.13579 9.98628,14.85093 24.897973,27.56295 13.60966,11.60206 21.97587,17.35141 25.24905,17.35141 1.29986,0 7.07064,-2.4362 12.82395,-5.41378 l 10.46057,-5.41379 -5.62938,-1.6365 c -11.98001,-3.48269 -20.85076,-15.64595 -23.51268,-32.23978 -1.40604,-8.76494 -0.29857,-28.29615 1.60447,-28.29615 1.50533,0 2.13071,3.65409 3.35445,19.59997 1.36524,17.78973 5.1185,24.26616 19.42433,33.51765 4.96905,3.21346 9.34423,5.96409 9.72262,6.11251 0.37839,0.14843 0.98907,1.66682 1.35707,3.37421 0.59622,2.76632 0.15004,3.61605 -4.09766,7.80375 -2.62171,2.58467 -8.05568,6.32488 -12.07549,8.31158 -4.01981,1.9867 -7.18364,3.88926 -7.03072,4.22792 0.15291,0.33865 5.67186,16.66803 12.26432,36.28751 6.59247,19.61948 12.29936,35.11238 12.68199,34.42867 0.38262,-0.68371 2.99843,-9.55026 5.8129,-19.70344 z m 612.8529,-2.52626 c 1.84634,-11.60621 5.90914,-24.05322 12.34096,-37.80844 7.31269,-15.63905 26.20912,-52.11271 44.52226,-85.93631 l 13.43327,-24.81068 -5.31529,-6.22687 c -2.92341,-3.42478 -14.96514,-17.57513 -26.75939,-31.44522 -11.79426,-13.87009 -21.75059,-24.87819 -22.12518,-24.46245 -1.42837,1.58529 -49.46364,91.11713 -53.50069,99.71871 -5.3606,11.42162 -11.28986,29.25946 -16.98286,51.09197 -2.44594,9.38013 -4.44717,17.42615 -4.44717,17.88005 0,0.4539 2.12905,0.5853 4.73122,0.292 3.59162,-0.40483 6.19597,0.0531 10.81235,1.90116 l 6.08112,2.43444 17.43766,23.26631 c 9.59071,12.79647 17.7099,22.79493 18.04266,22.21879 0.33276,-0.57614 1.11084,-4.2272 1.72908,-8.11346 z m -393.87608,4.54573 c 4.1019,-0.58437 7.61223,-1.21671 7.80073,-1.4052 0.18849,-0.1885 0.20739,-3.12398 0.042,-6.52329 l -0.30073,-6.18057 -10.35834,8.0613 c -8.06071,6.27318 -9.72431,7.95582 -7.5,7.58577 1.57209,-0.26154 6.21444,-0.95365 10.31635,-1.53801 z m -17.45801,-17.49836 c 6.05,-4.46729 14.24196,-10.79064 18.20436,-14.05189 l 7.20437,-5.92955 0.0456,-7.29519 c 0.0251,-4.01235 0.77984,-11.71603 1.6772,-17.11928 2.01638,-12.14127 1.30556,-19.81838 -2.22329,-24.01217 -5.21346,-6.19585 -5.14794,-23.05937 0.15092,-38.84441 2.83338,-8.44049 2.88064,-8.84619 1.10975,-9.52575 -1.31516,-0.50467 -27.0156,4.7778 -37.66894,7.74248 -3.025,0.84182 -7.66046,1.53592 -10.30103,1.54245 -4.59801,0.0114 -4.86743,0.17044 -6.37151,3.76187 -7.4482,17.78478 -6.26393,76.64717 2.30353,114.49426 l 1.52671,6.74426 6.67115,-4.69236 c 3.66913,-2.5808 11.62115,-8.34742 17.67115,-12.81472 z m 76.90773,9.51186 c 7.64925,-1.08648 14.0221,-2.09194 14.16189,-2.23436 0.1398,-0.14242 3.18321,-6.10894 6.76315,-13.25894 10.42518,-20.8216 22.24413,-39.47338 31.57859,-49.83497 1.97375,-2.19094 10.33864,-9.37701 18.58864,-15.96906 19.217,-15.35507 18.9436,-15.08752 14.5,-14.18963 -8.9661,1.81172 -34.67824,11.1225 -45.66768,16.537 -10.0153,4.93453 -13.76341,7.45073 -21.01107,14.10522 -4.85169,4.45462 -14.78375,13.08013 -22.07125,19.16779 l -13.25,11.06848 v 12.1609 c 0,12.95234 0.89146,24.4644 1.89246,24.43863 0.33415,-0.009 6.86602,-0.90458 14.51527,-1.99106 z m 86.59227,-11.80174 34.5,-4.70028 0.65335,-8.56159 c 0.76034,-9.96355 9.13112,-36.25662 20.35295,-63.92969 6.18196,-15.24472 6.68124,-17.03254 6.56275,-23.5 -0.0705,-3.85 -0.45675,-8.50596 -0.85826,-10.34657 l -0.73002,-3.34657 -46.57118,39.53248 c -49.41769,41.94877 -51.59373,44.13346 -59.42435,59.66066 -3.26632,6.47672 -9.48524,20.85127 -9.48524,21.92438 0,0.41094 4.6125,0.12173 10.25,-0.64269 5.6375,-0.76442 25.775,-3.50498 44.75,-6.09013 z m 113.8899,-15.53267 52.38991,-7.15889 4.45575,-12.5 c 2.45066,-6.875 10.5,-29.825 17.88743,-51 14.80076,-42.42426 16.77124,-46.62622 34.55277,-73.682 l 9.97788,-15.18201 -4.37375,-6.38769 c -4.27876,-6.24895 -4.40805,-6.34223 -5.95265,-4.29451 -2.53386,3.35921 -10.79744,7.3104 -20.92145,10.00347 -11.72804,3.11976 -26.85484,10.47634 -61.20263,29.76455 -34.73909,19.50793 -36.50584,20.22095 -48.18435,19.44597 -4.96035,-0.32916 -11.65465,-1.31573 -14.87624,-2.19236 -3.22159,-0.87664 -6.02499,-1.42634 -6.22978,-1.22155 -0.20478,0.20479 0.77894,6.19395 2.18606,13.30924 4.67126,23.62091 3.23067,31.74842 -13.7256,77.43689 -4.38858,11.825 -8.24756,23.90327 -8.5755,26.8406 l -0.59626,5.34061 5.39926,-0.68172 c 2.96959,-0.37494 28.97471,-3.90321 57.78915,-7.8406 z M 80.991227,282.44023 l 4.2569,-6.03628 -4.45934,-4.95986 c -2.45264,-2.72793 -8.21716,-7.94991 -12.81005,-11.60442 -11.6901,-9.30169 -18.82943,-16.08017 -22.48372,-21.34733 -5.68115,-8.1886 -7.75258,-9.53058 -14.5146,-9.40337 -3.28751,0.0618 -6.43469,0.56986 -6.99375,1.12892 -1.71678,1.71678 -2.25128,9.15644 -0.84643,11.78143 1.67571,3.13109 26.08791,25.51648 32.63521,29.92569 2.77838,1.87107 6.80683,5.06434 8.9521,7.09616 5.04616,4.77929 10.6995,9.45535 11.43147,9.45535 0.31642,0 2.49091,-2.71633 4.83221,-6.03629 z m 15.21108,-16.61828 4.792193,-3.65456 -2.482303,-6.59544 c -3.30435,-8.77962 -4.18643,-10.03321 -14.8437,-21.09543 -5.03373,-5.225 -12.27709,-13.53299 -16.09635,-18.46219 -10.39769,-13.41944 -14.64591,-17.54065 -18.06253,-17.5225 -4.45557,0.0237 -5.86238,1.42563 -5.74952,5.72969 0.15457,5.89499 2.66047,9.62705 14.21321,21.1679 5.8601,5.85407 12.27211,13.10601 14.2489,16.11543 1.97679,3.00942 6.87577,10.53417 10.88662,16.72167 4.01085,6.1875 7.51944,11.25 7.79687,11.25 0.27744,0 2.66091,-1.64455 5.29661,-3.65457 z m 2.92315,-26.85222 c -1.96626,-5.17164 -3.96012,-8.1079 -8.16722,-12.02746 -7.66121,-7.13759 -9.40051,-8.10856 -4.41693,-2.46575 2.6716,3.025 6.68513,8.0875 8.91895,11.25 2.23382,3.1625 4.18677,5.75 4.33989,5.75 0.15311,0 -0.1505,-1.12805 -0.67469,-2.50679 z m -79.31431,-1.68071 c -0.31922,-0.79773 -0.55618,-0.56078 -0.60416,0.60417 -0.0434,1.05416 0.19292,1.64479 0.52522,1.3125 0.33229,-0.3323 0.36781,-1.1948 0.079,-1.91667 z m 31.31689,-14.15751 c 0,-0.18976 -1.0125,-1.20226 -2.25,-2.25 l -2.25,-1.90499 1.90499,2.25 c 1.79022,2.11444 2.59501,2.70524 2.59501,1.90499 z M 591.62804,99.388752 c 2.2,-0.9648 5.70717,-2.06851 7.7937,-2.45269 3.269,-0.60191 4.13344,-1.36894 6.25,-5.54579 1.35097,-2.666 2.4563,-5.73671 2.4563,-6.8238 0,-2.75928 -3.77783,-5.17439 -6.93383,-4.43271 -3.77534,0.88722 -17.95671,9.59712 -18.46818,11.34276 -0.24172,0.825 -0.74478,5.05398 -1.11791,9.397738 l -0.67841,7.89774 3.34917,-3.81454 c 1.84204,-2.09799 5.14916,-4.60391 7.34916,-5.568708 z m 27.66142,-63.282341 c 1.44778,-0.948624 3.8977,-3.550695 5.44426,-5.782382 6.90657,-9.966189 21.67667,-20.123199 33.88789,-23.3038192 3.19504,-0.832203 6.07855,-1.804351 6.4078,-2.16033 0.32925,-0.355978 -5.02637,-0.399836 -11.90137,-0.09746 -14.40405,0.633515 -22.05619,2.652745 -31.97551,8.4376272 -10.50639,6.127258 -24.33289,21.301409 -21.75684,23.877455 1.05169,1.051693 10.29132,1.970724 13.74689,1.367351 1.933,-0.337518 4.69909,-1.389816 6.14688,-2.33844 z M 597.89095,183.3278 c -1.59915,-1.24398 -1.6215,-1.788 -0.28142,-6.85128 3.35893,-12.69121 6.5008,-15.91053 17.57791,-18.01127 4.60212,-0.87277 6.13552,-0.58461 18.23265,3.42637 7.26437,2.4086 14.67045,4.68629 16.45795,5.06154 3.89652,0.81799 4.28445,3.23253 1,6.22408 -3.32464,3.02816 -6.2292,4.29928 -9.82402,4.29928 -1.76302,0 -3.7051,0.61925 -4.31574,1.37612 -2.28184,2.82829 -11.011,4.74225 -24.11024,5.28641 -10.05131,0.41755 -13.39401,0.23354 -14.73709,-0.81125 z m 18.83638,-3.32703 4.90071,-1.34542 -3.92126,-0.0894 c -3.87071,-0.0883 -7.59529,2.03692 -7.56343,4.31557 0.009,0.62357 0.37437,0.52878 0.84929,-0.22015 0.45869,-0.72334 3.0393,-1.92061 5.73469,-2.66059 z m 6.40071,-16.52425 c 0,-1.20482 -6.69622,-1.20482 -9.5,0 -1.43895,0.61834 -0.38698,0.87915 3.75,0.92971 3.21352,0.0393 5.75,-0.37084 5.75,-0.92971 z m 124.0369,3.54446 c -1.88258,-2.26837 0.39647,-4.54446 4.55036,-4.54446 4.69878,0 5.7941,-2.42609 3.90561,-8.65072 -1.98042,-6.52763 -1.88435,-7.34928 0.85925,-7.34928 3.02328,0 8.68735,3.81614 10.52593,7.0918 2.48779,4.4323 0.88907,7.2295 -6.10685,10.68487 -8.10013,4.00075 -12.05036,4.79681 -13.7343,2.76779 z m -147.2869,-30.62456 c -2.00885,-1.17005 -2.31835,-4.95155 -0.55,-6.7199 0.66,-0.66 2.65468,-1.2 4.43261,-1.2 3.61165,0 5.00472,2.32454 3.93863,6.57217 -0.46189,1.84034 -1.27018,2.42047 -3.34029,2.39742 -1.50202,-0.0167 -3.51845,-0.48908 -4.48095,-1.04969 z m 17.25,-2.28639 c -8.01237,-4.31595 -5.95214,-8.63351 4.1197,-8.63351 8.10654,0 11.03911,3.22716 7.1303,7.84657 -2.77172,3.27561 -6.18646,3.51447 -11.25,0.78694 z m 32.75,-36.322838 c -4.04572,-1.05725 -0.5266,-7.57569 4.81348,-8.91596 3.87565,-0.97273 11.96933,0.14396 20.43079,2.81883 9.45416,2.9887 10.46967,5.21211 2.80119,6.13309 -5.87215,0.70525 -25.3045,0.68033 -28.04546,-0.036 z m -15.10398,-16.76292 c -4.32351,-4.0069 -2.91677,-7.6419 4.1895,-10.82565 5.66485,-2.53795 13.73394,-2.65507 26.66448,-0.38701 17.12288,3.00341 19.63635,3.71841 19.29538,5.48892 -0.61503,3.19358 -5.29879,3.73718 -14.60325,1.69486 -11.07351,-2.43062 -20.57843,-3.01932 -25.4043,-1.57345 -3.43524,1.02922 -3.78783,1.45692 -3.78783,4.59472 0,4.27455 -2.41556,4.65761 -6.35398,1.00761 z"
       id="path422" />
  </g>
</svg>
